<?xml version="1.0" encoding="utf-8"?>
<!-- Generator: Adobe Illustrator 22.0.1, SVG Export Plug-In . SVG Version: 6.00 Build 0)  -->
<svg version="1.1" id="Layer_1" xmlns="http://www.w3.org/2000/svg" xmlns:xlink="http://www.w3.org/1999/xlink" x="0px" y="0px"
	 viewBox="0 0 35.2 37.7" style="enable-background:new 0 0 35.2 37.7;" xml:space="preserve">
<style type="text/css">
	.st0{fill:#333333;}
</style>
<path class="st0" d="M35.2,20c0,2.7-0.3,5.4-1.3,7.9c-1.8,4.6-5.2,7.4-9.9,8.8c-3.2,0.9-6.4,1.3-9.7,0.9C11,37.2,8.2,35.8,6,33.3
	c-3.8-4.4-6-9.6-6-15.5c0-2.9,1-5.5,2.6-7.7C6,5.5,10.3,2.2,15.8,0.7c2.9-0.8,5.9-1.1,8.8-0.2c3.7,1.1,6.3,3.5,8,6.9
	c1.3,2.5,1.9,5.3,2.3,8.1C35.1,17,35.1,18.5,35.2,20 M32.1,19.5c-0.1-0.9-0.1-1.8-0.2-2.7c-0.2-2.5-0.9-4.9-1.9-7.2
	c-2-4.7-7.9-8.2-13.8-5.8c-3.7,1.5-7,3.3-9.7,6.2c-1.6,1.8-2.7,3.7-3.2,6c-0.4,1.9-0.2,3.8,0.2,5.8c0.6,3.2,1.9,6.2,4.2,8.6
	c2,2.2,4.5,3.6,7.4,4.1c1.9,0.4,3.9,0.2,5.8-0.1c3.3-0.5,6.1-2,8.1-4.7C31.2,26.6,32.2,23.2,32.1,19.5"/>
<path class="st0" d="M15.9,23.1c1.2-1.7,2.4-3.3,3.7-5c1.4-1.8,3-3.5,4.8-4.9c0.5-0.4,1.1-0.7,1.7-0.9c0.4-0.2,0.9-0.2,1.1,0.2
	c0.2,0.4,0.3,0.9,0.3,1.4c0,0.1-0.2,0.2-0.3,0.3c-3.9,3.1-6.8,7-9,11.4c-0.4,0.8-0.8,1.6-1.2,2.3c-0.3,0.6-0.4,0.6-0.8,0.1
	c-1.9-2.4-3.8-4.8-5.7-7.2c-0.4-0.5-0.1-1.3,0.6-1.5c0.6-0.2,1.1-0.1,1.6,0.3c0.7,0.5,1.4,1.1,2,1.8C15.2,22,15.5,22.6,15.9,23.1"/>
</svg>
