<?xml version="1.0" encoding="utf-8"?>
<!-- Generator: Adobe Illustrator 22.0.1, SVG Export Plug-In . SVG Version: 6.00 Build 0)  -->
<svg version="1.1" id="Layer_1" xmlns="http://www.w3.org/2000/svg" xmlns:xlink="http://www.w3.org/1999/xlink" x="0px" y="0px"
	 viewBox="0 0 185 85.2" style="enable-background:new 0 0 185 85.2;" xml:space="preserve">
<style type="text/css">
	.st0{fill:#FFFFFF;}
</style>
<path class="st0" d="M77.6,73.9l0-11.5l7.3,0l0,2l-5.1,0l0,2.7l4.4,0l0,2l-4.4,0l0,2.8l5.1,0l0,2L77.6,73.9z M95.2,72
	c-0.2,0.5-0.5,0.8-0.9,1.1c-0.4,0.3-0.8,0.5-1.2,0.7c-0.5,0.2-0.9,0.2-1.4,0.2c-0.6,0-1.2-0.1-1.7-0.3c-0.5-0.2-0.9-0.5-1.3-0.9
	c-0.3-0.3-0.5-0.6-0.6-0.9c-0.1-0.3-0.3-0.7-0.3-1.1c-0.1-0.4-0.1-0.8-0.1-1.2c0-0.4,0-0.9,0-1.4c0-0.5,0-1,0-1.4s0-0.8,0.1-1.2
	c0.1-0.4,0.2-0.7,0.3-1.1c0.1-0.3,0.4-0.6,0.6-0.9c0.4-0.4,0.8-0.7,1.3-0.9c0.5-0.2,1-0.3,1.7-0.3c0.5,0,1,0.1,1.5,0.2
	c0.5,0.2,0.9,0.4,1.2,0.7c0.4,0.3,0.7,0.7,0.9,1.1c0.2,0.5,0.4,1,0.5,1.6l-2.2,0c-0.1-0.5-0.3-0.9-0.6-1.2c-0.3-0.3-0.7-0.5-1.3-0.5
	c-0.3,0-0.6,0.1-0.8,0.2c-0.2,0.1-0.4,0.3-0.6,0.4c-0.1,0.1-0.2,0.3-0.3,0.4c-0.1,0.1-0.1,0.3-0.2,0.6c0,0.2-0.1,0.5-0.1,0.9
	c0,0.4,0,0.8,0,1.4c0,0.6,0,1,0,1.4c0,0.4,0,0.7,0.1,0.9c0,0.2,0.1,0.4,0.2,0.6s0.2,0.3,0.3,0.4c0.2,0.2,0.3,0.3,0.6,0.4
	c0.2,0.1,0.5,0.2,0.8,0.2c0.5,0,1-0.2,1.3-0.5s0.5-0.7,0.6-1.2l2.2,0C95.6,71,95.5,71.5,95.2,72 M100.7,64.4l0,2.8l4.4,0l0,2l-4.4,0
	l0,4.7l-2.2,0l0-11.5l7.3,0l0,2L100.7,64.4z M108.6,74l0-11.5l2.2,0l0,11.5L108.6,74z M119.9,74l-2.1-4l-2.1,4l-2.5,0l3.4-5.9
	l-3.2-5.6l2.5,0l1.9,3.7l2-3.7l2.4,0l-3.2,5.6l3.4,5.9L119.9,74z M124.4,74l0-2.4l2.3,0l0,2.4L124.4,74z M134.6,73.8
	c-0.4,0.2-0.9,0.3-1.5,0.3c-0.4,0-0.8-0.1-1.3-0.2s-0.8-0.4-1.2-0.7c-0.4-0.3-0.6-0.8-0.9-1.3c-0.2-0.6-0.3-1.3-0.3-2.1
	c0-0.9,0.1-1.6,0.3-2.1c0.2-0.6,0.5-1,0.9-1.3c0.4-0.3,0.7-0.5,1.2-0.7c0.4-0.1,0.9-0.2,1.3-0.2c0.6,0,1.1,0.1,1.5,0.3
	s0.8,0.5,1.2,0.9l-1.4,1.4c-0.2-0.2-0.4-0.4-0.6-0.5c-0.2-0.1-0.4-0.2-0.7-0.2c-0.5,0-0.9,0.2-1.2,0.6c-0.2,0.2-0.3,0.5-0.3,0.7
	c-0.1,0.3-0.1,0.7-0.1,1.1c0,0.9,0.1,1.5,0.4,1.9c0.3,0.4,0.7,0.6,1.1,0.6c0.3,0,0.5-0.1,0.7-0.2c0.2-0.1,0.4-0.3,0.6-0.5l1.4,1.4
	C135.4,73.3,135,73.6,134.6,73.8 M144.3,71.7c-0.1,0.5-0.4,1-0.7,1.4c-0.2,0.3-0.6,0.5-1,0.7c-0.4,0.2-0.9,0.3-1.5,0.3
	c-0.6,0-1.1-0.1-1.5-0.3c-0.4-0.2-0.7-0.4-1-0.7c-0.4-0.4-0.6-0.9-0.7-1.4s-0.2-1.2-0.2-1.9c0-0.8,0.1-1.4,0.2-1.9
	c0.1-0.5,0.4-1,0.7-1.4c0.2-0.3,0.6-0.5,1-0.7c0.4-0.2,0.9-0.3,1.5-0.3c0.6,0,1.1,0.1,1.5,0.3c0.4,0.2,0.7,0.4,1,0.7
	c0.4,0.4,0.6,0.9,0.7,1.4c0.1,0.5,0.2,1.1,0.2,1.9C144.5,70.6,144.4,71.2,144.3,71.7 M142.4,68.6c-0.1-0.4-0.2-0.6-0.4-0.9
	c-0.2-0.2-0.5-0.4-0.9-0.4c-0.4,0-0.7,0.1-0.9,0.4c-0.2,0.2-0.3,0.5-0.4,0.9c-0.1,0.4-0.1,0.7-0.1,1.2c0,0.4,0,0.8,0.1,1.2
	c0.1,0.4,0.2,0.6,0.4,0.9c0.2,0.2,0.5,0.4,0.9,0.4c0.4,0,0.7-0.1,0.9-0.4c0.2-0.2,0.3-0.5,0.4-0.9c0.1-0.4,0.1-0.8,0.1-1.2
	C142.5,69.3,142.4,69,142.4,68.6 M156.8,74l0-5.1c0-0.3,0-0.5-0.1-0.7c-0.1-0.2-0.2-0.4-0.3-0.5c-0.1-0.1-0.3-0.2-0.4-0.3
	c-0.2-0.1-0.3-0.1-0.5-0.1c-0.2,0-0.3,0-0.5,0.1c-0.2,0.1-0.3,0.1-0.4,0.2c-0.1,0.1-0.2,0.3-0.3,0.5c-0.1,0.2-0.1,0.4-0.1,0.7l0,5.2
	l-2,0l0-5.1c0-0.3,0-0.5-0.1-0.7c-0.1-0.2-0.2-0.4-0.3-0.5c-0.1-0.1-0.3-0.2-0.4-0.3c-0.2-0.1-0.3-0.1-0.5-0.1c-0.2,0-0.3,0-0.5,0.1
	c-0.2,0.1-0.3,0.1-0.4,0.3c-0.1,0.1-0.2,0.3-0.3,0.5c-0.1,0.2-0.1,0.4-0.1,0.7l0,5.1l-2,0l0-8.4l2,0l0,0.8c0.3-0.3,0.6-0.5,0.9-0.6
	c0.4-0.2,0.7-0.2,1.1-0.2c0.5,0,0.9,0.1,1.2,0.3c0.4,0.2,0.7,0.4,0.9,0.8c0.3-0.4,0.7-0.6,1.1-0.8c0.4-0.2,0.8-0.3,1.3-0.2
	c0.4,0,0.8,0.1,1.1,0.2c0.3,0.1,0.6,0.3,0.9,0.6c0.3,0.3,0.6,0.7,0.7,1.1c0.1,0.4,0.2,0.8,0.2,1.3l0,5.4L156.8,74z M161.8,74l0-2.4
	l2.3,0l0,2.4L161.8,74z M171.9,74.1l0-5.2c0-0.3,0-0.5-0.1-0.7c-0.1-0.2-0.2-0.3-0.3-0.5c-0.1-0.1-0.3-0.2-0.4-0.3s-0.3-0.1-0.5-0.1
	c-0.2,0-0.3,0-0.5,0.1c-0.2,0.1-0.3,0.1-0.4,0.2c-0.1,0.1-0.2,0.3-0.3,0.5c-0.1,0.2-0.1,0.4-0.1,0.7l0,5.2l-2,0l0-11.5l2,0l0,3.9
	c0.3-0.3,0.6-0.5,0.9-0.7c0.3-0.1,0.7-0.2,1-0.2c0.4,0,0.8,0.1,1.2,0.2c0.3,0.2,0.6,0.4,0.8,0.6c0.2,0.3,0.4,0.6,0.5,1
	c0.1,0.4,0.2,0.8,0.2,1.2l0,5.5L171.9,74.1z M182,74.1l-2-3.5l-0.9,1l0,2.5l-2,0l0-11.5l2,0l0,6.5l2.7-3.4l2.4,0l-2.9,3.4l3.1,5
	L182,74.1z M179.5,28.8l5,0c-0.4-1.2-0.7-2.6-0.8-4.1l-4.8,0c0,0.7,0.1,1.5,0.2,2.1C179.2,27.5,179.4,28.1,179.5,28.8 M161.9,32.6
	c0.4-1.1,0.4-1.9,0.2-2.6c-0.2-0.5-0.6-0.9-1.3-1.1l-8.1,0l-0.5,3.4l4,0c0.2,0,0.3,0.1,0.4,0.2c0.1,0.1,0,0.3,0,0.5
	c-0.8,2.2-1.9,4.4-3.1,6.4c-1.2,2.1-2.6,4.1-4,6.2l2.8,0l-1.9,12.8l5,0l2.6-17.6c0.7-1.3,1.5-2.6,2.1-4
	C160.7,35.3,161.3,34,161.9,32.6 M160,38.9c-0.4,1-0.9,1.8-1.3,2.6l3.1,0c0.5-0.9,0.9-1.7,1.3-2.6c0.4-0.9,0.7-1.8,1.1-2.7l-3.1,0
	C160.8,37,160.4,37.9,160,38.9 M177.1,29.9l0.8-5.3l-5,0l-0.8,5.3l-8,0l-0.5,3.3l8,0l-0.2,1.6l5,0l0.2-1.6l7.9,0l0.5-3.3L177.1,29.9
	z M179.9,35.7l-3.6,0l0,0l-5,0l0,0l-3.9,0c-0.9,0-1.7,0.3-2.4,1c-0.3,0.3-0.5,0.7-0.7,1.1s-0.3,0.8-0.4,1.3L161,58.3l4.6,0l1-7.1
	l1.5,0l0.5-3.2l-1.5,0l0.4-3l1.5,0l0.5-3.3l-1.5,0l0.2-1.7c0-0.2,0.1-0.4,0.3-0.6c0.2-0.2,0.3-0.3,0.5-0.3l1.7,0l-0.4,2.6h0
	l-0.5,3.3h0l-0.4,3h0l-0.5,3.2h0l-1,6.9l5,0l1-6.9l2.4,0l-0.4,3.1c0,0.2-0.1,0.3-0.2,0.4c-0.1,0.1-0.3,0.2-0.4,0.2l-1.4,0l0.2,3.5
	l3.1,0c0.5,0,0.9-0.1,1.3-0.3c0.4-0.2,0.7-0.4,1-0.7c0.6-0.6,0.9-1.3,1.1-2.3l2.3-15.8c0.1-1,0-1.9-0.4-2.6
	C181.7,36.1,181,35.7,179.9,35.7 M176.9,48l-2.4,0l0.4-3l2.4,0L176.9,48z M177.8,41.7l-2.4,0l0.4-2.6l1.5,0c0.2,0,0.4,0.1,0.5,0.2
	c0.2,0.2,0.2,0.3,0.2,0.5L177.8,41.7z M161.1,47.3c0-1.5,0.1-3,0.2-4.5l-3.1,0c-0.2,3-0.3,6-0.2,8.9l3.2,0
	C161.1,50.3,161.1,48.8,161.1,47.3 M152,28c0.7,0,2.8,0,3.2,0c0,0,0,0,0,0l5.1,0c-0.1-0.4-0.1-0.9-0.2-1.3c-0.1-0.7-0.1-1.4-0.1-2.2
	l-4.5,0v0l-3.4,0c0,0-2,0.3-2.2,1.6C149.8,27.4,151.3,28,152,28 M97.5,28C97.5,28,97.5,28,97.5,28l6.2,0c-0.2-0.4-0.3-0.9-0.4-1.3
	c-0.2-0.8-0.4-1.5-0.6-2.3l-2.9,0l0,0l-4.4,0c0,0-1,0.2-1.1,1C94.2,26.3,95.8,27.6,97.5,28 M84.6,37.6c1.1-2.1,2.1-4.3,3.1-6.5
	c1-2.2,1.9-4.4,2.8-6.7l-5.7,0c-1,2.5-2.1,5-3.2,7.4c-1.1,2.4-2.3,4.8-3.7,7.2l2.4,0L77.6,58l5.4,0l3-20.5L84.6,37.6z M111.6,36.1
	l-5.6,0c-0.5,1-1,1.9-1.5,2.7c-0.5,0.8-1.1,1.7-1.6,2.6c-0.2-0.9-0.3-1.7-0.5-2.6c-0.2-0.9-0.3-1.8-0.3-2.7l-1.1,0
	c-1,1.4-2.6,3.6-3.7,5c0.2,1.1,0.4,2.2,0.6,3.3c0.3,1.6,0.7,3.2,1.1,4.8c0.4,1.6,0.9,3.1,1.5,4.6c0.6,1.5,1.2,3,2,4.4l6.2,0
	c-0.9-1.8-1.7-3.6-2.4-5.4c-0.7-1.8-1.3-3.7-1.9-5.7c1.4-1.7,2.8-3.5,3.9-5.4C109.4,39.8,110.5,38,111.6,36.1 M105.4,28.9
	L105.4,28.9l-9.8,0v0l-6.5,0l-0.5,3.5l7.1,0c-1.6,2.4-3.3,4.8-5.1,7.2c-1.8,2.4-3.7,4.7-5.6,6.7l3.6,0l-1.1,7.9
	c-0.1,0.4-0.1,0.9,0,1.3c0.1,0.4,0.2,0.8,0.4,1.2c0.2,0.4,0.5,0.7,0.8,0.9c0.3,0.2,0.7,0.4,1.2,0.4l7.6,0l1.8-3.5l-5.8,0
	c-0.2,0-0.3-0.1-0.5-0.3C93,54,92.9,53.8,93,53.6l1.6-11c0.3-0.4,0.7-0.8,1.2-1.4c0.1-0.1,0.2-0.2,0.3-0.4c0.1-0.1,0.2-0.3,0.3-0.4
	c0.3-0.3,0.5-0.7,0.7-1c0,0,0,0,0,0.1c1.5-2.1,3-4.4,3-4.4c0.2-0.3,0.4-0.6,0.6-0.9c0.4-0.6,0.7-1.2,1.1-1.8l10.2,0l0.1-0.8
	C110.9,30,108.1,29,105.4,28.9 M141.6,35.7L141.6,35.7l-5.4-0.1l0,0.1l-7.1,0l-0.5,3.4l19.4,0l0.5-3.4L141.6,35.7z M136.3,34.8
	l5.4,0l0.4-3.1l5.9,0l0.5-3.5l-5.9,0l0.5-3.8l-5.4,0l-0.5,3.8l-6.1,0l-0.5,3.4l6.1,0L136.3,34.8z M145.5,40.6l-5.4,0l-0.3,2.4
	l-11.9,0l-0.5,3.4l11.9,0l-1.1,7.8c0,0.2-0.1,0.3-0.2,0.5c-0.1,0.1-0.3,0.2-0.4,0.2l-1.5,0c-0.1-0.5-0.3-1.1-0.4-1.7
	c-0.1-0.6-0.3-1.2-0.4-1.8c-0.1-0.6-0.2-1.2-0.3-1.7c-0.1-0.5-0.2-1-0.3-1.4l-5.7,0c0.1,0.5,0.2,1.1,0.4,1.8
	c0.2,0.7,0.3,1.5,0.5,2.2c0.2,0.8,0.4,1.5,0.5,2.2c0.2,0.7,0.3,1.3,0.4,1.8l2.9,0l0.2,2.3l6.1,0c0.8,0,1.5-0.3,2.2-0.9
	c0.6-0.6,1-1.3,1.1-2l1.3-9.1l2.4,0l0.5-3.4l-2.4,0L145.5,40.6z M128.5,27.1c-0.4-0.5-1.1-0.7-2-0.7l-3.6,0l-2.1,0l-6.5,0
	c0,0-1.9,0.3-2.2,1.9c-0.2,1.6,4.5,1.7,4.6,4.5l-3,20.4c-0.1,0.8,0,1.4,0.4,2c0.2,0.3,0.4,0.6,0.7,0.7s0.6,0.3,1,0.3l6.6,0
	c0.4,0,0.7-0.1,1.1-0.2c0.3-0.2,0.6-0.4,0.9-0.7c0.3-0.3,0.5-0.6,0.6-1c0.2-0.4,0.3-0.8,0.3-1.2l3.4-23.7
	C129.2,28.4,129,27.6,128.5,27.1 M124,30.6l-1.2,8.5h0l-0.5,3.5h0l-1.4,9.4c0,0.2-0.1,0.3-0.2,0.5c-0.1,0.1-0.3,0.2-0.4,0.2l-0.8,0
	c-0.1,0-0.2-0.1-0.3-0.2c-0.1-0.1-0.1-0.3-0.1-0.4l1.4-9.4l1,0l0.5-3.5l-1,0l1.2-8.5c0-0.1,0.1-0.3,0.2-0.4c0.1-0.1,0.3-0.2,0.4-0.2
	l0.7,0c0.1,0,0.2,0.1,0.3,0.2C124,30.3,124,30.4,124,30.6 M30.8,29.8c1.5-1.8,3.4-3.1,5.5-4.2c1.9-1,3.9-1.8,5.9-2.5
	c0.8-0.3,0.4-0.8,0.5-1.3c0.1-0.5-0.2-0.5-0.5-0.5c-3.8-0.7-7.6-0.6-11.4,0.3c-5.5,1.4-10.3,4.2-14.7,8c-0.6,0.5-0.7,1-0.2,1.6
	c0.5,0.6,0.3,1-0.2,1.4c-0.8,0.6-1.6,1.2-2.4,1.9c-0.4,0.3-0.6,0.4-1-0.1c-0.5-0.6-1.2-0.5-1.8,0c-1,0.8-2,1.7-3.1,2.4
	c-0.7,0.6-0.9,1.1-0.3,1.9c1.7,2.3,3.4,4.7,5.1,7.1c0.6,0.8,1.2,0.8,1.9,0.3c1.1-0.8,2.1-1.7,3.2-2.5c0.4-0.3,0.8-0.8,0.6-1.4
	c-0.4-0.8,0-1.2,0.6-1.5c0.5-0.3,0.9-0.7,1.4-1.1c1-0.8,1.5-0.7,2.3,0.3c3.3,4.6,6.6,9.2,10,13.7c0.2,0.2,0.3,0.4,0.3,0.6l5,6.8
	c0.2,0.2,0.4,0.5,0.8,0.9c2,2.7,4,5.4,5.9,8.2c1.2,1.7,3.3,1.7,4.5,0.7c0.9-0.7,1.8-1.4,2.7-2.2c1.7-1.4,1.9-2.8,0.6-4.6
	c-1.3-1.7-2.5-3.5-3.8-5.2c-5.8-8-11.6-16-17.4-24C29.5,33.3,29.5,31.4,30.8,29.8 M48,67.5c-0.7,0.5-1.2,0.3-1.6-0.4
	c-0.5-0.6-0.5-1.2,0.2-1.7c0.7-0.5,1.2-0.5,1.8,0.3C48.9,66.5,48.7,67,48,67.5 M30.6,56c-4.5,4.9-11.7,13.8-16.2,18.7
	c-1.9,2.1-2.6,4.6-1.8,7c1.5,4.4,7.2,4.7,10.2,0.5c3.6-4.8,9.8-13.7,13.4-18.5L30.6,56z M18.5,80.1c-0.5,0.8-1.1,0.8-1.8,0.2
	c-0.7-0.6-0.6-1.2,0.1-1.8c0.5-0.5,0.9-0.6,1.5-0.1C18.8,78.9,19,79.4,18.5,80.1 M58.7,34.7c-0.1-0.3-0.2-0.6-0.5-0.5
	c-0.4,0-0.5,0.3-0.6,0.6c-0.8,1.5-1.5,2.9-2.3,4.4c-0.9,1.7-2.7,2.5-4.2,1.9c-0.6-0.3-1.3-0.6-1.9-0.9c-1.5-0.7-1.9-2.5-1-4.2
	c0.5-1,1.1-2.1,1.6-3.1c0.2-0.5,0.5-1,0.7-1.4c0.3-0.5,0.1-0.9-0.4-0.8c-0.4,0-0.9,0.1-1.3,0.3c-3.3,1.5-5.9,3.8-7.7,7.2
	c-0.5,1-0.9,2.1-0.8,3.2c0.1,0.7,0.1,1.4,0.2,2c0,0.4,0.1,0.8,0,1.1l5.2,7.1c0.3-0.4,0.8-0.8,1.3-1c1-0.4,2-0.5,3-0.8c0,0,0,0,0,0.1
	c0.9-0.1,1.8-0.2,2.7-0.4c1.4-0.3,2.6-1,3.6-2.3c0.9-1.2,1.7-2.5,2.2-4C59.5,40,59.3,37.3,58.7,34.7 M14.1,74.3
	C14.1,74.3,14.1,74.3,14.1,74.3L14.1,74.3C14.1,74.3,14.1,74.3,14.1,74.3 M69.6,27.5c0-1.6-0.6-2.8-1.8-3.7c-1.9-1.5-3.8-3-5.8-4.4
	c-0.6-0.4-0.8-0.9-0.8-1.6c0-3,0-6,0-8.9c0-2.3-0.7-2.9-2.9-3.1c-1.9-0.1-3.8,0.4-5.7,0.1c-1.2-0.2-2.1,0.9-2.2,2.2
	c0,0.9,0,1.7,0,2.7c-0.3-0.2-0.5-0.3-0.6-0.4c-4.1-3.1-8.2-6.2-12.3-9.3c-2-1.5-3.6-1.5-5.4-0.2c-5.3,4-10.7,8-16,12.1
	C11.5,16.6,6.7,20.2,2,23.7c-1.3,1-2,2.2-2,3.9c0,8,0,15.9,0,23.9l0,6.9c0,3.6,0,7.2,0,10.7c0,3.1,1.4,4.6,4.4,4.6
	c7.5,0,0.6,0,7.6,0c1.9,0,2.1-1.3,2.1-1.7l0-5.6c0-0.8-0.3-1.2-0.7-1.2c-0.1,0-0.8,0-1,0l-3.3,0c-1,0-1.1-0.4-1.1-1.3
	c0-11.1,0-22.2,0-33.4c0-0.9,0.2-1.4,0.9-1.9c3.1-2.3,6.2-4.6,9.3-7c5.3-4,10.7-8,16-12c0.5-0.4,0.7-0.4,1.2,0
	c1.8,1.4,3.6,2.7,5.4,4c6.6,4.9,13.2,9.8,19.8,14.8c0.7,0.5,1,1.1,1,2c-0.1,11.1-0.1,22.2,0,33.4c0,1.1-0.3,1.4-1.4,1.4
	c-5.1-0.1,1.3,0-3.9-0.1c-1,0-1.3,0.3-1.3,1.4c0.1,2,0,4.1,0,6.1c0,0.7,0.2,1.1,1,1.1c7,0,2.5,0,9.5,0c2.5,0,4.1-1.9,4.1-4.4
	C69.6,55.5,69.6,41.5,69.6,27.5"/>
</svg>
