<?xml version="1.0" encoding="utf-8"?>
<!-- Generator: Adobe Illustrator 22.0.1, SVG Export Plug-In . SVG Version: 6.00 Build 0)  -->
<svg version="1.1" id="Layer_1" xmlns="http://www.w3.org/2000/svg" xmlns:xlink="http://www.w3.org/1999/xlink" x="0px" y="0px"
	 viewBox="0 0 237.2 109.2" style="enable-background:new 0 0 237.2 109.2;" xml:space="preserve">
<style type="text/css">
	.st0{clip-path:url(#SVGID_2_);fill:#E84F25;}
</style>
<g>
	<defs>
		<rect id="SVGID_1_" width="237.2" height="109.2"/>
	</defs>
	<clipPath id="SVGID_2_">
		<use xlink:href="#SVGID_1_"  style="overflow:visible;"/>
	</clipPath>
	<path class="st0" d="M99.5,94.8l0-14.8l9.4,0l0,2.6l-6.6,0l0,3.5l5.6,0l0,2.6l-5.6,0l0,3.6l6.6,0l0,2.6L99.5,94.8z M122.1,92.3
		c-0.3,0.6-0.7,1.1-1.2,1.5c-0.5,0.4-1,0.7-1.6,0.9c-0.6,0.2-1.2,0.3-1.9,0.3c-0.8,0-1.5-0.1-2.1-0.4c-0.6-0.3-1.2-0.7-1.7-1.2
		c-0.4-0.4-0.6-0.8-0.8-1.2c-0.2-0.4-0.3-0.9-0.4-1.4s-0.1-1-0.1-1.6c0-0.6,0-1.1,0-1.8c0-0.6,0-1.2,0-1.8c0-0.6,0.1-1.1,0.1-1.6
		c0.1-0.5,0.2-0.9,0.4-1.4c0.2-0.4,0.5-0.8,0.8-1.2c0.5-0.5,1.1-0.9,1.7-1.2c0.6-0.3,1.3-0.4,2.1-0.4c0.7,0,1.3,0.1,1.9,0.3
		c0.6,0.2,1.1,0.5,1.6,0.9c0.5,0.4,0.8,0.9,1.2,1.5c0.3,0.6,0.5,1.3,0.6,2l-2.8,0c-0.1-0.6-0.4-1.1-0.8-1.5
		c-0.4-0.4-0.9-0.6-1.6-0.6c-0.4,0-0.7,0.1-1,0.2c-0.3,0.1-0.5,0.3-0.7,0.6c-0.1,0.2-0.2,0.3-0.3,0.5c-0.1,0.2-0.2,0.4-0.2,0.7
		c-0.1,0.3-0.1,0.7-0.1,1.2c0,0.5,0,1.1,0,1.8c0,0.7,0,1.3,0,1.8c0,0.5,0.1,0.9,0.1,1.2c0.1,0.3,0.1,0.6,0.2,0.7
		c0.1,0.2,0.2,0.4,0.3,0.5c0.2,0.2,0.4,0.4,0.7,0.6c0.3,0.1,0.6,0.2,1,0.2c0.7,0,1.2-0.2,1.6-0.6c0.4-0.4,0.6-0.9,0.8-1.5l2.8,0
		C122.6,91.1,122.4,91.7,122.1,92.3 M129.1,82.6l0,3.6l5.6,0l0,2.6l-5.6,0l0,6l-2.8,0l0-14.8l9.4,0l0,2.6L129.1,82.6z M139.3,94.9
		l0-14.8l2.8,0l0,14.8L139.3,94.9z M153.7,94.9l-2.7-5.2l-2.7,5.2l-3.2,0l4.4-7.6l-4.1-7.2l3.2,0l2.5,4.8l2.5-4.8l3.1,0l-4.1,7.2
		l4.4,7.6L153.7,94.9z M159.5,94.9l0-3.1l3,0l0,3.1L159.5,94.9z M172.5,94.7c-0.6,0.2-1.2,0.4-1.9,0.4c-0.5,0-1.1-0.1-1.6-0.3
		c-0.6-0.2-1.1-0.5-1.5-0.9c-0.4-0.4-0.8-1-1.1-1.7c-0.3-0.7-0.4-1.6-0.4-2.7c0-1.1,0.1-2,0.4-2.7c0.3-0.7,0.7-1.3,1.1-1.7
		c0.5-0.4,1-0.7,1.5-0.9c0.6-0.2,1.1-0.2,1.6-0.2c0.7,0,1.4,0.1,1.9,0.4c0.6,0.2,1.1,0.6,1.5,1.1l-1.8,1.8c-0.3-0.3-0.5-0.5-0.8-0.7
		c-0.3-0.1-0.6-0.2-0.9-0.2c-0.6,0-1.1,0.2-1.5,0.7c-0.2,0.3-0.3,0.6-0.4,1c-0.1,0.4-0.1,0.9-0.1,1.4c0,1.1,0.2,1.9,0.6,2.4
		c0.4,0.5,0.9,0.7,1.5,0.7c0.3,0,0.6-0.1,0.9-0.2c0.3-0.1,0.5-0.3,0.8-0.7l1.8,1.8C173.6,94,173.1,94.4,172.5,94.7 M185,91.9
		c-0.2,0.7-0.5,1.2-0.9,1.8c-0.3,0.4-0.7,0.7-1.3,0.9c-0.5,0.3-1.2,0.4-2,0.4c-0.8,0-1.4-0.1-1.9-0.4c-0.5-0.3-0.9-0.6-1.3-0.9
		c-0.5-0.5-0.8-1.1-0.9-1.8c-0.2-0.7-0.2-1.5-0.2-2.5c0-1,0.1-1.8,0.2-2.5c0.2-0.7,0.5-1.2,0.9-1.7c0.3-0.4,0.7-0.7,1.3-0.9
		c0.5-0.3,1.2-0.4,1.9-0.4c0.8,0,1.4,0.1,2,0.4c0.5,0.3,1,0.6,1.3,0.9c0.5,0.5,0.8,1.1,0.9,1.7c0.2,0.7,0.2,1.5,0.2,2.5
		C185.3,90.5,185.2,91.3,185,91.9 M182.6,88c-0.1-0.4-0.2-0.8-0.5-1.1c-0.3-0.3-0.7-0.5-1.2-0.5c-0.5,0-0.9,0.2-1.2,0.5
		c-0.3,0.3-0.4,0.6-0.5,1.1s-0.1,1-0.1,1.5c0,0.6,0,1.1,0.1,1.5c0.1,0.5,0.2,0.8,0.5,1.1c0.3,0.3,0.7,0.5,1.2,0.5
		c0.5,0,0.9-0.2,1.2-0.5c0.3-0.3,0.4-0.6,0.5-1.1c0.1-0.5,0.1-1,0.1-1.5C182.7,88.9,182.6,88.4,182.6,88 M201,94.9l0-6.5
		c0-0.4,0-0.7-0.1-0.9c-0.1-0.2-0.2-0.5-0.4-0.6c-0.2-0.2-0.4-0.3-0.6-0.3c-0.2-0.1-0.4-0.1-0.6-0.1c-0.2,0-0.4,0-0.6,0.1
		c-0.2,0.1-0.4,0.2-0.6,0.3c-0.2,0.1-0.3,0.3-0.4,0.6c-0.1,0.2-0.2,0.5-0.2,0.9l0,6.6l-2.6,0l0-6.5c0-0.4,0-0.7-0.1-0.9
		c-0.1-0.2-0.2-0.4-0.4-0.6c-0.2-0.2-0.4-0.3-0.6-0.3c-0.2-0.1-0.4-0.1-0.6-0.1c-0.2,0-0.4,0-0.6,0.1c-0.2,0.1-0.4,0.2-0.6,0.3
		c-0.2,0.2-0.3,0.4-0.4,0.6c-0.1,0.2-0.2,0.6-0.2,0.9l0,6.5l-2.6,0l0-10.8l2.5,0l0,1c0.3-0.4,0.7-0.6,1.2-0.8
		c0.5-0.2,0.9-0.3,1.4-0.3c0.6,0,1.1,0.1,1.6,0.3s0.9,0.6,1.2,1c0.4-0.5,0.9-0.8,1.4-1c0.5-0.2,1.1-0.3,1.7-0.3c0.5,0,1,0.1,1.4,0.3
		c0.4,0.2,0.8,0.4,1.1,0.7c0.4,0.4,0.7,0.9,0.9,1.4c0.2,0.5,0.2,1.1,0.2,1.7l0,6.9L201,94.9z M207.5,94.9l0-3.1l3,0l0,3.1
		L207.5,94.9z M220.4,95l0-6.6c0-0.4,0-0.7-0.1-0.9c-0.1-0.2-0.2-0.4-0.4-0.6c-0.2-0.2-0.3-0.3-0.5-0.3c-0.2-0.1-0.4-0.1-0.6-0.1
		c-0.2,0-0.4,0-0.6,0.1c-0.2,0.1-0.4,0.2-0.5,0.3c-0.2,0.1-0.3,0.3-0.4,0.6c-0.1,0.2-0.1,0.5-0.1,0.9l0,6.6l-2.6,0l0-14.8l2.6,0l0,5
		c0.3-0.4,0.7-0.7,1.2-0.8c0.4-0.2,0.9-0.3,1.3-0.3c0.6,0,1.1,0.1,1.5,0.3c0.4,0.2,0.8,0.5,1.1,0.8c0.3,0.4,0.5,0.8,0.7,1.3
		c0.1,0.5,0.2,1,0.2,1.6l0,7L220.4,95z M233.3,95l-2.5-4.5l-1.1,1.3l0,3.2l-2.6,0l0-14.8l2.6,0l0,8.4l3.5-4.4l3.1,0l-3.7,4.4l4,6.5
		L233.3,95z M230.2,36.9l6.4,0c-0.5-1.5-0.9-3.3-1.1-5.3l-6.2,0c0,1,0.1,1.9,0.3,2.7C229.8,35.2,230,36.1,230.2,36.9 M207.5,41.8
		c0.5-1.4,0.6-2.5,0.2-3.3c-0.3-0.6-0.8-1.1-1.6-1.4l-10.4,0l-0.6,4.3l5.1,0c0.3,0,0.4,0.1,0.5,0.2c0.1,0.2,0.1,0.4,0,0.6
		c-1.1,2.8-2.4,5.6-4,8.2c-1.6,2.6-3.3,5.3-5.2,7.9l3.6,0l-2.4,16.4l6.4,0l3.3-22.6c1-1.6,1.9-3.3,2.7-5.1
		C206.1,45.3,206.9,43.5,207.5,41.8 M205.1,49.8c-0.6,1.2-1.1,2.4-1.7,3.4l4,0c0.6-1.1,1.1-2.2,1.6-3.4c0.5-1.1,1-2.3,1.4-3.4l-4,0
		C206.2,47.5,205.7,48.6,205.1,49.8 M227.1,38.3l1-6.7l-6.4,0l-1,6.7l-10.2,0l-0.6,4.3l10.2,0l-0.3,2.1l6.4,0l0.3-2.1l10.1,0
		l0.6-4.3L227.1,38.3z M230.7,45.8l-4.7,0l0,0l-6.4,0l0,0l-5.1,0c-1.1,0-2.1,0.4-3,1.3c-0.4,0.4-0.7,0.8-0.9,1.4
		c-0.3,0.5-0.4,1.1-0.5,1.6l-3.6,24.8l5.9,0l1.3-9.1l1.9,0l0.6-4.1l-1.9,0l0.6-3.9l1.9,0l0.6-4.2l-1.9,0l0.3-2.2
		c0-0.2,0.1-0.5,0.3-0.8s0.4-0.4,0.7-0.4l2.1,0l-0.5,3.4h0l-0.6,4.2l0,0l-0.6,3.9h0l-0.6,4.1l0,0l-1.3,8.8l6.4,0l1.3-8.8l3.1,0
		l-0.6,4c0,0.2-0.1,0.4-0.3,0.6c-0.2,0.1-0.4,0.2-0.6,0.2l-1.8,0l0.2,4.4l3.9,0c0.6,0,1.1-0.1,1.6-0.3c0.5-0.2,0.9-0.5,1.3-0.9
		c0.7-0.8,1.2-1.7,1.4-2.9l2.9-20.3c0.2-1.3,0-2.4-0.6-3.3C233,46.2,232,45.8,230.7,45.8 M226.8,61.6l-3.1,0l0.6-3.9l3.1,0
		L226.8,61.6z M227.9,53.5l-3.1,0l0.5-3.4l2,0c0.3,0,0.5,0.1,0.7,0.3c0.2,0.2,0.3,0.4,0.3,0.6L227.9,53.5z M206.6,60.7
		c0-1.9,0.1-3.8,0.3-5.8l-4,0c-0.3,3.9-0.4,7.7-0.3,11.5l4.2,0C206.6,64.5,206.5,62.6,206.6,60.7 M194.9,35.9c1,0,3.6,0,4.1,0
		c0,0,0,0,0,0l6.5,0c-0.1-0.5-0.2-1.1-0.2-1.7c-0.1-0.9-0.1-1.9-0.2-2.8l-5.8,0l0,0l-4.3,0c0,0-2.5,0.4-2.8,2
		C192,35.1,193.9,35.9,194.9,35.9 M125,35.9C125,35.9,125,35.9,125,35.9l7.9,0c-0.2-0.5-0.4-1.1-0.5-1.7c-0.3-1-0.5-1.9-0.7-2.9
		l-3.7,0l0,0l-5.6,0c0,0-1.2,0.2-1.4,1.3C120.8,33.7,122.8,35.4,125,35.9 M108.5,48.2c1.4-2.7,2.7-5.5,4-8.3
		c1.3-2.8,2.4-5.7,3.6-8.5l-7.3,0c-1.3,3.2-2.7,6.4-4.1,9.5c-1.4,3.1-3,6.1-4.7,9.2l3.1,0l-3.5,24.5l7,0l3.8-26.2L108.5,48.2z
		 M143,46.2l-7.1,0c-0.6,1.2-1.3,2.4-1.9,3.5c-0.7,1.1-1.3,2.2-2.1,3.3c-0.2-1.1-0.4-2.2-0.6-3.4c-0.2-1.1-0.3-2.3-0.4-3.5l-1.4,0
		c-1.3,1.8-3.3,4.6-4.8,6.5c0.2,1.4,0.5,2.8,0.8,4.3c0.4,2.1,0.8,4.1,1.4,6.1c0.5,2,1.1,4,1.9,5.9c0.7,1.9,1.6,3.8,2.6,5.6l7.9,0
		c-1.1-2.3-2.1-4.6-3-6.9c-0.9-2.4-1.7-4.8-2.4-7.3c1.9-2.2,3.5-4.5,5-6.9C140.3,51.1,141.7,48.7,143,46.2 M135.1,37.1L135.1,37.1
		l-12.5,0v0l-8.3,0l-0.7,4.5l9.1,0c-2,3.1-4.2,6.2-6.5,9.3c-2.3,3.1-4.7,6-7.2,8.7l4.7,0l-1.5,10.1c-0.1,0.6-0.1,1.1,0,1.6
		c0.1,0.5,0.2,1,0.5,1.5c0.2,0.5,0.6,0.8,1,1.2c0.4,0.3,1,0.5,1.6,0.5l9.7,0l2.3-4.5l-7.4,0c-0.3,0-0.4-0.1-0.6-0.3
		c-0.1-0.2-0.2-0.5-0.2-0.7l2-14c0.4-0.5,0.9-1.1,1.5-1.9c0.1-0.2,0.2-0.3,0.4-0.5c0.1-0.2,0.2-0.3,0.4-0.5c0.3-0.4,0.6-0.9,0.9-1.3
		c0,0,0,0.1,0,0.1c2-2.6,3.9-5.7,3.9-5.7c0.2-0.4,0.5-0.8,0.8-1.2c0.5-0.8,0.9-1.5,1.4-2.3l13.1,0l0.1-1
		C142.2,38.4,138.6,37.2,135.1,37.1 M181.5,45.8L181.5,45.8l-6.9-0.1l0,0.1l-9.1,0l-0.6,4.4l24.9,0l0.6-4.4L181.5,45.8z M174.8,44.6
		l6.9,0l0.6-3.9l7.6,0l0.6-4.4l-7.6,0l0.7-4.8l-6.9,0l-0.7,4.8l-7.8,0l-0.6,4.4l7.8,0L174.8,44.6z M186.6,52.1l-6.9,0l-0.4,3
		l-15.2,0l-0.6,4.3l15.2,0l-1.4,10c0,0.2-0.1,0.4-0.3,0.6c-0.2,0.2-0.4,0.2-0.5,0.2l-1.9,0c-0.2-0.7-0.4-1.4-0.6-2.2
		c-0.2-0.8-0.3-1.6-0.5-2.3c-0.1-0.8-0.3-1.5-0.4-2.2c-0.1-0.7-0.3-1.3-0.4-1.8l-7.3,0c0.1,0.6,0.3,1.4,0.5,2.3
		c0.2,0.9,0.4,1.9,0.7,2.9c0.2,1,0.5,1.9,0.7,2.8c0.2,0.9,0.4,1.7,0.6,2.3l3.8,0l0.3,2.9l7.8,0c1,0,2-0.4,2.8-1.2
		c0.8-0.8,1.3-1.6,1.5-2.6l1.7-11.6l3.1,0l0.6-4.3l-3.1,0L186.6,52.1z M164.8,34.7c-0.6-0.6-1.4-0.9-2.5-0.9l-4.6,0l-2.7,0l-8.3,0
		c0,0-2.5,0.4-2.8,2.5c-0.3,2,5.8,2.2,5.9,5.7l-3.8,26.2c-0.1,1,0,1.9,0.5,2.6c0.3,0.4,0.6,0.7,0.9,1c0.4,0.2,0.8,0.4,1.3,0.4l8.4,0
		c0.5,0,1-0.1,1.4-0.3c0.4-0.2,0.8-0.5,1.1-0.9c0.3-0.4,0.6-0.8,0.8-1.3c0.2-0.5,0.4-1,0.4-1.5l4.4-30.3
		C165.6,36.5,165.4,35.4,164.8,34.7 M159,39.2l-1.6,10.9h0l-0.7,4.5h0l-1.7,12c0,0.2-0.1,0.4-0.3,0.6c-0.2,0.2-0.3,0.2-0.5,0.2
		l-1.1,0c-0.2,0-0.3-0.1-0.4-0.3c-0.1-0.2-0.1-0.4-0.1-0.5l1.7-12.1l1.3,0l0.7-4.5l-1.3,0l1.6-11c0-0.2,0.1-0.3,0.3-0.5
		c0.2-0.2,0.3-0.2,0.5-0.2l0.9,0c0.2,0,0.3,0.1,0.4,0.3C159,38.9,159,39,159,39.2 M39.6,38.2c1.9-2.3,4.4-4,7-5.4
		c2.4-1.3,5-2.3,7.5-3.2c1-0.3,0.6-1,0.7-1.6c0.1-0.6-0.3-0.6-0.7-0.7c-4.9-0.9-9.8-0.8-14.6,0.4c-7.1,1.8-13.3,5.4-18.8,10.2
		c-0.8,0.7-0.9,1.2-0.3,2.1c0.6,0.7,0.4,1.3-0.3,1.8c-1,0.8-2,1.6-3,2.4c-0.5,0.4-0.8,0.5-1.3-0.1c-0.7-0.7-1.5-0.6-2.3,0
		c-1.3,1-2.6,2.1-3.9,3.1c-0.9,0.7-1.1,1.5-0.4,2.5c2.2,3,4.4,6,6.6,9c0.7,1,1.5,1,2.4,0.4c1.4-1,2.7-2.1,4.1-3.2
		c0.6-0.4,1-1.1,0.7-1.8c-0.5-1,0-1.5,0.7-2c0.6-0.4,1.2-0.9,1.8-1.4c1.3-1,1.9-0.9,2.9,0.4c4.3,5.9,8.5,11.8,12.8,17.6
		c0.2,0.3,0.4,0.6,0.4,0.8l6.4,8.7c0.3,0.2,0.6,0.6,1,1.2c2.5,3.5,5.2,6.9,7.6,10.5c1.5,2.2,4.2,2.2,5.8,0.9
		c1.1-0.9,2.3-1.8,3.5-2.8c2.2-1.8,2.5-3.6,0.8-5.9c-1.6-2.2-3.2-4.5-4.9-6.7c-7.4-10.2-14.9-20.5-22.3-30.8
		C37.8,42.7,37.8,40.3,39.6,38.2 M61.6,86.6c-0.9,0.7-1.5,0.4-2.1-0.5c-0.7-0.8-0.7-1.5,0.2-2.2c0.9-0.7,1.6-0.6,2.3,0.3
		C62.6,85.2,62.4,85.9,61.6,86.6 M39.2,71.9c-5.8,6.2-15,17.7-20.8,24c-2.5,2.6-3.3,5.9-2.3,8.9c1.9,5.7,9.2,6,13.1,0.7
		c4.6-6.2,12.6-17.6,17.2-23.7L39.2,71.9z M23.8,102.6c-0.7,1.1-1.4,1.1-2.4,0.3c-0.9-0.8-0.7-1.6,0.1-2.3c0.6-0.7,1.2-0.8,1.9-0.1
		C24.2,101.1,24.3,101.8,23.8,102.6 M75.3,44.4c-0.1-0.4-0.2-0.7-0.7-0.7c-0.5,0-0.6,0.4-0.8,0.7c-1,1.9-1.9,3.8-2.9,5.6
		c-1.2,2.2-3.4,3.2-5.4,2.4c-0.8-0.4-1.6-0.7-2.4-1.1c-1.9-0.9-2.4-3.2-1.3-5.4c0.7-1.3,1.4-2.7,2.1-4c0.3-0.6,0.7-1.2,0.9-1.8
		c0.3-0.7,0.1-1.1-0.6-1.1c-0.6,0-1.2,0.1-1.7,0.4c-4.2,1.9-7.6,4.9-9.9,9.2c-0.7,1.3-1.1,2.7-1,4.1c0.1,0.9,0.1,1.7,0.3,2.6
		c0.1,0.5,0.1,1,0,1.4l6.6,9.1c0.4-0.5,1.1-1.1,1.7-1.3c1.3-0.5,2.6-0.7,3.8-1c0,0,0,0.1,0,0.1c1.2-0.2,2.3-0.3,3.5-0.6
		c1.8-0.4,3.3-1.3,4.6-2.9c1.2-1.6,2.2-3.2,2.8-5.1C76.2,51.3,76.1,47.8,75.3,44.4 M18.1,95.3C18.1,95.3,18.1,95.3,18.1,95.3
		L18.1,95.3C18.1,95.3,18.1,95.3,18.1,95.3 M89.2,35.2c0-2-0.8-3.5-2.4-4.7c-2.5-1.9-4.9-3.8-7.4-5.6c-0.8-0.6-1-1.2-1-2
		c0-3.8,0-7.6,0-11.5c0-3-0.9-3.8-3.7-3.9c-2.4-0.2-4.8,0.5-7.3,0.1c-1.6-0.2-2.8,1.1-2.8,2.8c0,1.1,0,2.2,0,3.5
		c-0.4-0.3-0.6-0.4-0.8-0.5c-5.3-4-10.5-7.9-15.8-11.9c-2.5-1.9-4.6-1.9-6.9-0.2c-6.8,5.2-13.7,10.3-20.5,15.5
		c-6.1,4.6-12.1,9.1-18.2,13.7c-1.7,1.2-2.5,2.8-2.5,5C0,45.6,0,55.8,0,66l0,8.9c0,4.6,0,9.2,0,13.8c0,4,1.8,5.9,5.6,5.9
		c9.6,0,0.7,0,9.8,0c2.5,0,2.7-1.7,2.7-2.2l0-7.2c0-1.1-0.4-1.5-0.8-1.5c-0.2,0-1.1,0-1.3,0l-4.3,0c-1.2,0-1.5-0.5-1.5-1.6
		c0-14.3,0.1-28.5,0.1-42.8c0-1.1,0.3-1.8,1.2-2.4c4-2.9,7.9-5.9,11.9-8.9c6.8-5.1,13.7-10.2,20.5-15.4c0.6-0.5,0.9-0.5,1.5,0
		c2.3,1.8,4.6,3.5,7,5.2c8.4,6.3,16.9,12.6,25.3,18.9c0.9,0.6,1.2,1.4,1.2,2.5c-0.1,14.3-0.1,28.5-0.1,42.8c0,1.4-0.3,1.8-1.7,1.8
		c-6.6-0.1,1.6,0-4.9-0.1c-1.3,0-1.7,0.4-1.7,1.8c0.1,2.6,0,5.2,0,7.9c0,0.9,0.2,1.4,1.2,1.4c9,0,3.2,0,12.2,0
		c3.1,0,5.3-2.4,5.3-5.6C89.2,71.2,89.2,53.2,89.2,35.2"/>
</g>
</svg>
