<?xml version="1.0" encoding="utf-8"?>
<!-- Generator: Adobe Illustrator 22.0.1, SVG Export Plug-In . SVG Version: 6.00 Build 0)  -->
<svg version="1.1" id="Layer_1" xmlns="http://www.w3.org/2000/svg" xmlns:xlink="http://www.w3.org/1999/xlink" x="0px" y="0px"
	 viewBox="0 0 73.9 71.6" style="enable-background:new 0 0 73.9 71.6;" xml:space="preserve">
<style type="text/css">
	.st0{fill:#EA4D17;}
</style>
<path class="st0" d="M46.1,66.4c-5.8,1.2-11.6,1.3-17.5,0.1c0,1.1,0,2.1,0,3.1c0,1.3-0.6,2-1.9,2c-3.5,0-7.1,0-10.6,0
	c-1.3,0-1.9-0.6-2-1.9c0-2.8,0-5.7,0-8.5c0-0.6-0.2-1-0.7-1.4c-3.5-2.7-6.3-5.9-8-10c-0.2-0.4-0.4-0.6-0.9-0.6c-0.9,0-1.8,0-2.8,0
	c-1.1,0-1.8-0.6-1.8-1.7c0-3.9,0-7.7,0-11.6c0-1.1,0.6-1.7,1.8-1.7c0.9,0,1.7,0,2.6,0c0.3,0,0.7-0.3,0.8-0.5c1.1-2.7,2.7-5,4.6-7.2
	c0.2-0.2,0.2-0.7,0.2-0.9C8.7,21.8,8.1,18,8.5,14.1c0.1-0.8,0.4-0.9,1.1-0.9c4.2,0.2,7.7,2,10.5,5c0.5,0.5,0.9,0.6,1.6,0.3
	c12.2-4.5,24.2-4,35.6,2.5c3.2,1.8,6,4.2,8.3,7.2c0.2,0.2,0.3,0.4,0.5,0.6c1.4-1.9,3.6-2.3,5.5-3.1c0,0.1,0.1,0.2,0.1,0.3
	c-0.4,0.2-0.8,0.4-1.3,0.6c0.5,0.2,0.9,0.3,1.2,0.4c2.1,0.9,2.8,3.3,1.5,4.9c-0.7,1-1.9,1.4-3,1.1c-1.2-0.3-1.9-1.2-2-2.4
	c-0.1-0.8,0.1-1.6,0.1-2.6c-0.7,0.5-1.3,0.9-1.7,1.2c1,2.3,2.1,4.3,2.8,6.5c2,6.7,0.8,12.9-3.3,18.4c-1.4,1.9-3.3,3.6-4.9,5.3
	c-0.4,0.4-0.6,0.7-0.6,1.3c0,3,0,6.1,0,9.1c0,1.4-0.6,2-2,2c-3.5,0-7,0-10.4,0c-1.4,0-2-0.6-2-2c0-1,0-1.9,0-2.9
	C46.2,66.6,46.2,66.6,46.1,66.4 M37.1,22.5c1.8,0,3.6,0,5.4,0c0.8,0,1.3-0.4,1.2-1.1c-0.1-0.8-0.6-1-1.3-1c-3.6,0-7.1,0-10.7,0
	c-0.7,0-1.2,0.2-1.3,1c-0.1,0.6,0.4,1,1.3,1C33.6,22.5,35.4,22.5,37.1,22.5 M72.3,29.9c0-1-1.3-2.3-2.3-2c-0.9,0.2-0.6,1.2-0.7,1.9
	c0,0.2,0,0.4,0.1,0.6c0.2,0.9,0.8,1.4,1.6,1.3C71.8,31.4,72.3,30.7,72.3,29.9 M12.8,34.7c0.9,0,1.7-0.7,1.7-1.6
	c0-0.9-0.7-1.7-1.6-1.7c-0.9,0-1.7,0.7-1.7,1.6C11.2,33.9,11.9,34.7,12.8,34.7"/>
<path class="st0" d="M37,12.8c-3.6,0-6.4-2.9-6.4-6.4C30.6,2.9,33.5,0,37,0c3.6,0,6.5,2.9,6.5,6.5C43.4,10,40.5,12.8,37,12.8"/>
</svg>
