<?xml version="1.0" encoding="utf-8"?>
<!-- Generator: Adobe Illustrator 22.0.1, SVG Export Plug-In . SVG Version: 6.00 Build 0)  -->
<svg version="1.1" id="Layer_1" xmlns="http://www.w3.org/2000/svg" xmlns:xlink="http://www.w3.org/1999/xlink" x="0px" y="0px"
	 viewBox="0 0 32.7 23.4" style="enable-background:new 0 0 32.7 23.4;" xml:space="preserve">
<style type="text/css">
	.st0{fill:#EA4D17;}
</style>
<path class="st0" d="M0,6.4c0.6-1,1.4-2,2.7-2.1c1.6-0.1,2.8,1.1,2.9,3.2c0.2,3.7,1.8,6.6,4.9,8.6c6.8,4.5,15.9,0,16.5-8.1
	c0.1-0.8,0.2-1.8,0.6-2.4c1.3-1.9,3.5-1.5,5,0.9v2.4c-0.1,0.3-0.2,0.5-0.3,0.8c-1.2,7.4-7.4,13.2-14.6,13.7
	C9.9,23.8,3,19.2,0.8,11.9c-0.3-1-0.5-2-0.8-3V6.4z"/>
<path class="st0" d="M23.1,2.3c0,1.4-1,2.4-2.3,2.4c-1.3,0-2.4-1-2.4-2.4c0-1.3,1-2.3,2.2-2.3C22-0.1,23,0.9,23.1,2.3"/>
<path class="st0" d="M11.9,0c1.3,0,2.4,1,2.4,2.3c0,1.3-1,2.4-2.4,2.4c-1.3,0-2.3-1-2.3-2.3C9.6,1.1,10.6,0,11.9,0"/>
</svg>
